# xmcd
# 
# Track frame offsets:
#     183
#     19338
#     35185
#     51708
#     75225
#     99683
#     120463
#     135640
#     153788
#     169498
#     195798
#     210218
# 
# Disc length: 3185
# 
# Revision: 1
# Processed by: cddbd v1.5.2PL0 Copyright (c) Steve Scherf et al.
# Submitted via: fre:ac v1.1beta1pre5
# 
DISCID=990c6f0c
DTITLE=Cracker - Cracker
DYEAR=1992
DGENRE=
TTITLE0=Teen Angst (What The World Needs Now)
TTITLE1=Happy Birthday To Me
TTITLE2=This Is Cracker Soul
TTITLE3=I See The Light
TTITLE4=St. Cajetan
TTITLE5=Mr. Wrong
TTITLE6=Someday
TTITLE7=Can I Take My Gun To Heaven?
TTITLE8=Satisfy You
TTITLE9=Another Song About The Rain
TTITLE10=Don't Fuck Me Up (With Peace And Love)
TTITLE11=Dr. Bernice
EXTD=
EXTT0=
EXTT1=
EXTT2=
EXTT3=
EXTT4=
EXTT5=
EXTT6=
EXTT7=
EXTT8=
EXTT9=
EXTT10=
EXTT11=
PLAYORDER=
